<svg xmlns="http://www.w3.org/2000/svg" viewBox="0 0 120 120">
  <rect width="120" height="120" rx="18" fill="#15794a"/>
  <g fill="none" stroke="#ffffff" stroke-linecap="round" stroke-linejoin="round">
    <path d="M34 24c-9 0-9 8-9 16 0 6-3 8-7 8 4 0 7 2 7 8 0 8 0 16 9 16" stroke-width="5"/>
    <path d="M86 24c9 0 9 8 9 16 0 6 3 8 7 8-4 0-7 2-7 8 0 8 0 16-9 16" stroke-width="5"/>
    <path d="M46 32a14 14 0 0 1 28 0" stroke-width="5"/>
    <line x1="40" y1="38" x2="80" y2="38" stroke-width="6"/>
    <line x1="60" y1="38" x2="60" y2="88" stroke-width="6"/>
    <line x1="44" y1="90" x2="76" y2="90" stroke-width="6"/>
  </g>
</svg>
